<svg width="83" height="84" xmlns="http://www.w3.org/2000/svg" xml:space="preserve" version="1.1">

 <g>
  <title>Layer 1</title>
  <path id="svg_1" d="m71.9,11.2l-11.2,0l0,-8.3c0,-1.6 -1.3,-2.9 -2.9,-2.9s-2.9,1.3 -2.9,2.9l0,8.3l-27,0l0,-8.3c0,-1.6 -1.3,-2.9 -2.9,-2.9s-2.9,1.3 -2.9,2.9l0,8.3l-11.2,0c-6,0 -10.9,4.9 -10.9,10.9l0,51.4c0,6 4.9,10.9 10.9,10.9l61,0c6,0 10.9,-4.9 10.9,-10.9l0,-51.4c0,-6 -4.9,-10.9 -10.9,-10.9zm5.1,62.3c0,2.8 -2.3,5.1 -5.1,5.1l-61,0c-2.8,0 -5.1,-2.3 -5.1,-5.1l0,-51.4c0,-2.8 2.3,-5.1 5.1,-5.1l11.2,0l0,4c0,1.6 1.3,2.9 2.9,2.9s2.9,-1.3 2.9,-2.9l0,-4l26.9,0l0,4c0,1.6 1.3,2.9 2.9,2.9s2.9,-1.3 2.9,-2.9l0,-4l11.2,0c2.8,0 5.1,2.3 5.1,5.1l0,51.4l0.1,0z"/>
  <path id="svg_2" d="m26.2,64.2l-10.7,0c-1.6,0 -2.9,1.3 -2.9,2.9s1.3,2.9 2.9,2.9l10.7,0c1.6,0 2.9,-1.3 2.9,-2.9s-1.3,-2.9 -2.9,-2.9z"/>
  <path id="svg_3" d="m26.2,50.7l-10.7,0c-1.6,0 -2.9,1.3 -2.9,2.9s1.3,2.9 2.9,2.9l10.7,0c1.6,0 2.9,-1.3 2.9,-2.9s-1.3,-2.9 -2.9,-2.9z"/>
  <path id="svg_4" d="m46.8,37.2l-10.8,0c-1.6,0 -2.9,1.3 -2.9,2.9s1.3,2.9 2.9,2.9l10.7,0c1.6,0 2.9,-1.3 2.9,-2.9s-1.2,-2.9 -2.8,-2.9z"/>
  <path id="svg_5" d="m46.8,64.2l-10.8,0c-1.6,0 -2.9,1.3 -2.9,2.9s1.3,2.9 2.9,2.9l10.7,0c1.6,0 2.9,-1.3 2.9,-2.9s-1.2,-2.9 -2.8,-2.9z"/>
  <path id="svg_6" d="m46.8,50.7l-10.8,0c-1.6,0 -2.9,1.3 -2.9,2.9s1.3,2.9 2.9,2.9l10.7,0c1.6,0 2.9,-1.3 2.9,-2.9s-1.2,-2.9 -2.8,-2.9z"/>
  <path id="svg_7" d="m67.3,37.2l-10.7,0c-1.6,0 -2.9,1.3 -2.9,2.9s1.3,2.9 2.9,2.9l10.7,0c1.6,0 2.9,-1.3 2.9,-2.9s-1.3,-2.9 -2.9,-2.9z"/>
  <path id="svg_8" d="m67.3,64.2l-10.7,0c-1.6,0 -2.9,1.3 -2.9,2.9s1.3,2.9 2.9,2.9l10.7,0c1.6,0 2.9,-1.3 2.9,-2.9s-1.3,-2.9 -2.9,-2.9z"/>
  <path id="svg_9" d="m67.3,50.7l-10.7,0c-1.6,0 -2.9,1.3 -2.9,2.9s1.3,2.9 2.9,2.9l10.7,0c1.6,0 2.9,-1.3 2.9,-2.9s-1.3,-2.9 -2.9,-2.9z"/>
 </g>
</svg>