<svg width="6" height="7" xmlns="http://www.w3.org/2000/svg" version="1.1">

 <g>
  <title>Layer 1</title>
  <g id="svg_1">
   <path id="svg_2" clip-rule="nonzero" fill="#000000" fill-rule="evenodd" stroke-width="0.98673px" stroke-miterlimit="4" stroke-dashoffset="0" d="m2.51509,2.91022l0,2.51364l0.26148,0l0,-2.51364l-0.26148,0z"/>
   <path id="svg_3" clip-rule="nonzero" fill="#000000" fill-rule="evenodd" stroke-width="0.98673px" stroke-miterlimit="4" stroke-dashoffset="0" d="m3.04426,2.91022l0,2.51364l0.26148,0l0,-2.51364l-0.26148,0z"/>
   <path id="svg_4" clip-rule="nonzero" fill="#000000" fill-rule="nonzero" stroke-width="0.99998" stroke-linecap="round" stroke-linejoin="round" stroke-miterlimit="4" stroke-dashoffset="0" d="m2.88768,0.0002c-0.61888,0.0111 -1.13904,0.47346 -1.22267,1.08679c-0.08363,0.61333 0.29397,1.19825 0.88729,1.37465a0.13236,0.13236 0 1 0 0.07544,-0.25375c-0.47002,-0.13973 -0.76647,-0.59935 -0.70021,-1.08523c0.06625,-0.48587 0.47504,-0.84908 0.96531,-0.85787c0.49028,-0.009 0.91165,0.33953 0.99529,0.82273c0.08364,0.48318 -0.19623,0.95302 -0.66094,1.10953a0.1323,0.13231 0 1 0 0.08423,0.25065c0.58661,-0.19758 0.94273,-0.79522 0.83716,-1.40516c-0.10558,-0.60991 -0.64203,-1.05345 -1.2609,-1.04234z"/>
   <path id="svg_5" clip-rule="nonzero" fill="#000000" fill-rule="evenodd" stroke-width="0.99998px" stroke-miterlimit="4" stroke-dashoffset="0" d="m2.24327,2.01151l-0.25321,0.0781l0.16588,0.53847c0.07568,0.246 0.30436,0.41446 0.56172,0.41446l0.38551,0c0.25736,0 0.48603,-0.16846 0.56172,-0.41446l0.16588,-0.53847l-0.25321,-0.0781l-0.16537,0.5385c-0.04185,0.13603 -0.16671,0.2279 -0.30902,0.2279l-0.38551,0c-0.14232,0 -0.26717,-0.0919 -0.30902,-0.2279l-0.16537,-0.5385z"/>
   <path id="svg_6" clip-rule="nonzero" fill="#000000" fill-rule="nonzero" stroke-width="0.99998" stroke-miterlimit="4" stroke-dashoffset="0" d="m2.57968,5.15925c-0.32721,0 -0.59531,0.26812 -0.59531,0.59534l0,0.0662l0.26458,0l0,-0.0662c0,-0.18424 0.14651,-0.33074 0.33073,-0.33074l0.66146,0c0.18423,0 0.33073,0.1465 0.33073,0.33074l0,0.0662l0.26459,0l0,-0.0662c0,-0.32722 -0.2681,-0.59534 -0.59532,-0.59534l-0.66146,0z"/>
   <path id="svg_7" clip-rule="nonzero" fill="#000000" fill-rule="nonzero" stroke-width="0.99998" stroke-miterlimit="4" stroke-dashoffset="0" d="m2.18281,5.68844c-0.32722,0 -0.59531,0.26811 -0.59531,0.59534l0,0.0661l0.26458,0l0,-0.0661c0,-0.18424 0.14651,-0.33074 0.33073,-0.33074l1.45521,0c0.18422,0 0.33073,0.1465 0.33073,0.33074l0,0.0661l0.26458,0l0,-0.0661c0,-0.32723 -0.2681,-0.59534 -0.59531,-0.59534l-1.45521,0z"/>
   <path id="svg_8" clip-rule="nonzero" fill="#000000" fill-rule="nonzero" stroke-width="0.99998" stroke-miterlimit="4" stroke-dashoffset="0" d="m1.71979,6.21763c-0.36375,0 -0.66146,0.29772 -0.66146,0.66149l0,0.39689l0.26458,0l0,-0.39689c0,-0.22078 0.17612,-0.3969 0.39688,-0.3969l2.38125,0c0.22076,0 0.39687,0.17612 0.39687,0.3969l0,0.39689l0.26459,0l0,-0.39689c0,-0.36377 -0.29772,-0.66149 -0.66146,-0.66149l-2.38125,0z"/>
   <path id="svg_9" clip-rule="nonzero" fill="#000000" fill-rule="evenodd" stroke-width="0.99998px" stroke-miterlimit="4" stroke-dashoffset="0" d="m1.4552,6.87914l0,0.39689l0.26459,0l0,-0.39689l-0.26459,0z"/>
   <path id="svg_10" clip-rule="nonzero" fill="#000000" fill-rule="evenodd" stroke-width="0.99998px" stroke-miterlimit="4" stroke-dashoffset="0" d="m1.98437,6.87914l0,0.39689l0.26458,0l0,-0.39689l-0.26458,0z"/>
   <path id="svg_11" clip-rule="nonzero" fill="#000000" fill-rule="evenodd" stroke-width="0.99998px" stroke-miterlimit="4" stroke-dashoffset="0" d="m2.51354,6.87914l0,0.39689l0.26458,0l0,-0.39689l-0.26458,0z"/>
   <path id="svg_12" clip-rule="nonzero" fill="#000000" fill-rule="evenodd" stroke-width="0.99998px" stroke-miterlimit="4" stroke-dashoffset="0" d="m3.0427,6.87914l0,0.39689l0.26459,0l0,-0.39689l-0.26459,0z"/>
   <path id="svg_13" clip-rule="nonzero" fill="#000000" fill-rule="evenodd" stroke-width="0.99998px" stroke-miterlimit="4" stroke-dashoffset="0" d="m3.57187,6.87914l0,0.39689l0.26458,0l0,-0.39689l-0.26458,0z"/>
   <path id="svg_14" clip-rule="nonzero" fill="#000000" fill-rule="evenodd" stroke-width="0.99998px" stroke-miterlimit="4" stroke-dashoffset="0" d="m4.10104,6.87914l0,0.39689l0.26458,0l0,-0.39689l-0.26458,0z"/>
   <path id="svg_15" clip-rule="nonzero" fill="#000000" fill-rule="evenodd" stroke-width="0.99998px" stroke-miterlimit="4" stroke-dashoffset="0" d="m0.52916,7.14374l0,0.26459l4.7625,0l0,-0.26459l-4.7625,0z"/>
   <path id="svg_16" clip-rule="nonzero" fill="#000000" fill-rule="evenodd" stroke-width="0.99998px" stroke-miterlimit="4" stroke-dashoffset="0" d="m0,7.14374l0,0.26459l0.26458,0l0,-0.26459l-0.26458,0z"/>
   <path id="svg_17" clip-rule="nonzero" fill="#000000" fill-rule="evenodd" stroke-width="0.99998px" stroke-miterlimit="4" stroke-dashoffset="0" d="m5.55625,7.14374l0,0.26459l0.26458,0l0,-0.26459l-0.26458,0z"/>
  </g>
 </g>
</svg>