<svg width="8" height="4" xmlns="http://www.w3.org/2000/svg" version="1.1">

 <g>
  <title>Layer 1</title>
  <g id="svg_1">
   <path id="svg_2" clip-rule="nonzero" fill="#000000" fill-rule="evenodd" stroke-width="1.00157" stroke-linejoin="round" stroke-miterlimit="4" stroke-dashoffset="0" d="m3.47813,0c-0.22633,0.00002 -0.44772,0.0646 -0.63868,0.18603a0.1325,0.13251 0 0 0 -0.01809,0.0145l-1.06911,0.9772c-0.05867,0.0366 -0.12202,0.0644 -0.18913,0.0811a0.1325,0.13251 0 0 0 -0.00053,0l-1.06136,0.26561c-0.29384,0.0736 -0.50137,0.33938 -0.50123,0.64234l0.00053,0.39688c0,0.36382 0.2976,0.66145 0.66142,0.66145l0.39685,0l0,-0.2651l-0.39685,0c-0.22062,0 -0.39685,-0.17575 -0.39685,-0.39635l0,-0.39688c-0.00009,-0.18279 0.12337,-0.34072 0.30073,-0.38499l1.06137,-0.2656c0.09654,-0.0241 0.18834,-0.0639 0.27231,-0.11731a0.1325,0.13251 0 0 0 0.01861,-0.0139l1.06808,-0.97669c0.14752,-0.0927 0.31761,-0.14312 0.49192,-0.14314l2.09431,0c0.11596,-0.00002 0.22584,0.0509 0.30126,0.13901a0.1325,0.13251 0 0 0 0.00103,0.00053l0.7446,0.85318c0.12567,0.14676 0.30957,0.23102 0.50278,0.23099l0.41804,0.00053c0.07455,0.00002 0.13228,0.0573 0.13228,0.13177l0,0.678c0,0.36671 -0.29423,0.66106 -0.6609,0.66094l-0.39736,0l0,0.2651l0.39736,0c0.50998,0.00017 0.92598,-0.4161 0.92598,-0.92604l0,-0.678c0,-0.21772 -0.1797,-0.3968 -0.39736,-0.39687l-0.41804,0c-0.11596,0.00002 -0.22583,-0.0509 -0.30125,-0.13901a0.1325,0.13251 0 0 0 -0.00103,-0.001l-0.74461,-0.85276c-0.12566,-0.14677 -0.30956,-0.23154 -0.50278,-0.23151l-2.0943,-0.00001zm-1.09651,2.96002l0,0.2651l2.90971,0l0,-0.2651l-2.90971,0z"/>
   <path id="svg_3" clip-rule="nonzero" fill="#000000" fill-rule="nonzero" stroke-linecap="round" stroke-linejoin="round" stroke-miterlimit="4" stroke-dashoffset="0" d="m5.95305,2.29876c-0.43678,0 -0.79369,0.35695 -0.79369,0.79375c0,0.43683 0.35691,0.79375 0.79369,0.79375c0.43678,0 0.7937,-0.35692 0.7937,-0.79375c0,-0.4368 -0.35692,-0.79375 -0.7937,-0.79375zm0,0.26458c0.2938,0 0.52913,0.23535 0.52913,0.52917c0,0.29382 -0.23533,0.52917 -0.52913,0.52917c-0.2938,0 -0.52913,-0.23535 -0.52913,-0.52917c0,-0.29382 0.23533,-0.52917 0.52913,-0.52917z"/>
   <path id="svg_4" clip-rule="nonzero" fill="#000000" fill-rule="nonzero" stroke-linecap="round" stroke-linejoin="round" stroke-miterlimit="4" stroke-dashoffset="0" d="m1.71979,2.29877c-0.43678,0 -0.7937,0.35695 -0.7937,0.79375c0,0.43683 0.35692,0.79375 0.7937,0.79375c0.43678,0 0.7937,-0.35692 0.7937,-0.79375c0,-0.4368 -0.35692,-0.79375 -0.7937,-0.79375zm0,0.26458c0.2938,0 0.52913,0.23535 0.52913,0.52917c0,0.29382 -0.23533,0.52917 -0.52913,0.52917c-0.2938,0 -0.52913,-0.23535 -0.52913,-0.52917c0,-0.29382 0.23533,-0.52917 0.52913,-0.52917z"/>
   <path id="svg_5" clip-rule="nonzero" fill="#000000" fill-rule="evenodd" stroke-width="1px" stroke-miterlimit="4" stroke-dashoffset="0" d="m0.13291,2.16648l0,0.26458l0.39685,0l0,-0.26458l-0.39685,0z"/>
   <path id="svg_6" clip-rule="nonzero" fill="#000000" fill-rule="evenodd" stroke-width="1px" stroke-miterlimit="4" stroke-dashoffset="0" d="m7.14391,1.63731l0,0.26459l0.26456,0l0,-0.26459l-0.26456,0z"/>
   <path id="svg_7" clip-rule="nonzero" fill="#000000" fill-rule="evenodd" stroke-width="1px" stroke-miterlimit="4" stroke-dashoffset="0" d="m4.23368,0.44669l0,0.79375l0.26457,0l0,-0.79375l-0.26457,0z"/>
   <path id="svg_8" clip-rule="nonzero" fill="#000000" fill-rule="evenodd" stroke-width="1px" stroke-miterlimit="4" stroke-dashoffset="0" d="m1.85259,1.10815l0,0.26458l4.89447,0l0,-0.26458l-4.89447,0z"/>
  </g>
 </g>
</svg>