<svg width="8" height="8" xmlns="http://www.w3.org/2000/svg" version="1.1">

 <g>
  <title>Layer 1</title>
  <g id="svg_1">
   <path id="svg_2" clip-rule="nonzero" fill="#000000" fill-rule="nonzero" stroke-linejoin="round" stroke-miterlimit="4" stroke-dashoffset="0" d="m3.96875,0c-2.19031,0 -3.96875,1.77845 -3.96875,3.96875c0,2.19033 1.77844,3.96875 3.96875,3.96875c2.19032,0 3.96876,-1.77842 3.96875,-3.96875c0.00001,-2.1903 -1.77843,-3.96875 -3.96875,-3.96875zm0,0.26459c2.04732,0 3.70417,1.65684 3.70417,3.70416c0,2.04732 -1.65685,3.70417 -3.70417,3.70417c-2.04732,0 -3.70417,-1.65685 -3.70416,-3.70417c-0.00001,-2.04732 1.65684,-3.70416 3.70416,-3.70416z"/>
   <path id="svg_3" clip-rule="nonzero" fill="#000000" fill-rule="nonzero" stroke-linejoin="round" stroke-miterlimit="4" stroke-dashoffset="0" d="m3.96875,0.66146c-1.825,0 -3.30729,1.4823 -3.30729,3.30729c0,1.82502 1.48229,3.3073 3.30729,3.3073c1.825,0 3.3073,-1.48228 3.30729,-3.3073c0.00001,-1.82499 -1.48229,-3.30729 -3.30729,-3.30729zm0,0.26459c1.68201,0 3.04271,1.36069 3.04271,3.0427c0,1.68201 -1.3607,3.04271 -3.04271,3.04271c-1.682,0 -3.04271,-1.3607 -3.04271,-3.04271c0,-1.68201 1.36071,-3.0427 3.04271,-3.0427z"/>
   <path id="svg_4" clip-rule="nonzero" fill="#000000" fill-rule="nonzero" stroke-linejoin="round" stroke-miterlimit="4" stroke-dashoffset="0" d="m3.9703,5.02812c-0.89153,0 -1.78308,0.26331 -2.55126,0.79169l0.14986,0.21807c1.44668,-0.99502 3.35616,-0.99399 4.80177,0.003l0.15038,-0.21807c-0.76762,-0.52919 -1.65922,-0.7938 -2.55075,-0.79428l0,-0.00041z"/>
   <path id="svg_5" clip-rule="nonzero" fill="#000000" fill-rule="evenodd" stroke-width="1px" stroke-miterlimit="4" stroke-dashoffset="0" d="m3.30729,4.10105l0,0.26458l1.32292,0l0,-0.26458l-1.32292,0z"/>
   <path id="svg_6" clip-rule="nonzero" fill="#000000" fill-rule="evenodd" stroke-width="1px" stroke-miterlimit="4" stroke-dashoffset="0" d="m3.43959,2.77813l0,1.45521l0.26458,0l0,-1.19063l0.52917,0l0,1.32292l0.26458,0l0,-1.5875l-1.05833,0z"/>
   <path id="svg_7" clip-rule="nonzero" fill="#000000" fill-rule="evenodd" stroke-width="1px" stroke-miterlimit="4" stroke-dashoffset="0" d="m3.57188,3.3073l0,0.26458l0.79375,0l0,-0.26458l-0.79375,0z"/>
   <path id="svg_8" clip-rule="nonzero" fill="#000000" fill-rule="evenodd" stroke-width="1px" stroke-miterlimit="4" stroke-dashoffset="0" d="m4.63021,2.91042l0,0.26458l0.13229,0c0.1477,0 0.26459,0.1169 0.26459,0.26459l0,0.39687l-0.1323,0l0,-0.26458l-0.26458,0l0,0.26458c0,0.14457 0.12003,0.26459 0.26458,0.26459l0.1323,0c0.14455,0 0.26458,-0.12002 0.26458,-0.26459l0,-0.39687c0,-0.29067 -0.23848,-0.52917 -0.52917,-0.52917l-0.13229,0z"/>
   <path id="svg_9" clip-rule="nonzero" fill="#000000" fill-rule="evenodd" stroke-width="1px" stroke-miterlimit="4" stroke-dashoffset="0" d="m2.04639,3.98479l-0.12402,0.23304l1.98437,1.05834l0.12402,-0.23305l-1.98437,-1.05833z"/>
   <path id="svg_10" clip-rule="nonzero" fill="#000000" fill-rule="evenodd" stroke-width="1px" stroke-miterlimit="4" stroke-dashoffset="0" d="m3.83646,1.45521l0,0.79375l0.26458,0l0,-0.79375l-0.26458,0z"/>
   <path id="svg_11" clip-rule="nonzero" fill="#000000" fill-rule="evenodd" stroke-width="1px" stroke-miterlimit="4" stroke-dashoffset="0" d="m2.79826,2.52761l0.21671,-0.15174l-0.30349,-0.43343l-0.21671,0.15176l0.30349,0.43341z"/>
   <path id="svg_12" clip-rule="nonzero" fill="#000000" fill-rule="evenodd" stroke-width="1px" stroke-miterlimit="4" stroke-dashoffset="0" d="m5.13925,2.52761l-0.21671,-0.15174l0.30348,-0.43343l0.21672,0.15176l-0.30349,0.43341z"/>
   <path id="svg_13" clip-rule="nonzero" fill="#000000" fill-rule="evenodd" stroke-width="1px" stroke-miterlimit="4" stroke-dashoffset="0" d="m1.56132,3.23355l0.74588,0.27147l0.0905,-0.24862l-0.74588,-0.27148l-0.0905,0.24863z"/>
   <path id="svg_14" clip-rule="nonzero" fill="#000000" fill-rule="evenodd" stroke-width="1px" stroke-miterlimit="4" stroke-dashoffset="0" d="m6.37618,3.23355l-0.74588,0.27147l-0.0905,-0.24862l0.74588,-0.27148l0.0905,0.24863z"/>
  </g>
 </g>
</svg>