<svg width="5" height="8" xmlns="http://www.w3.org/2000/svg" version="1.1">

 <g>
  <title>Layer 1</title>
  <g id="svg_1">
   <path id="svg_2" clip-rule="nonzero" fill="#000000" fill-rule="evenodd" stroke-width="1px" stroke-linecap="round" stroke-linejoin="round" stroke-miterlimit="4" stroke-dashoffset="0" d="m2.37919,0.52917a0.1323,0.1323 0 0 0 -0.13023,0.13436l0,0.26095a0.1323,0.1323 0 1 0 0.26458,0l0,-0.26095a0.1323,0.1323 0 0 0 -0.13435,-0.13436z"/>
   <path id="svg_3" clip-rule="nonzero" fill="#000000" fill-rule="evenodd" stroke-width="1px" stroke-linecap="round" stroke-linejoin="round" stroke-miterlimit="4" stroke-dashoffset="0" d="m2.37919,1.32292a0.1323,0.1323 0 0 0 -0.13023,0.13436l0,0.26095a0.1323,0.1323 0 1 0 0.26458,0l0,-0.26095a0.1323,0.1323 0 0 0 -0.13435,-0.13436z"/>
   <path id="svg_4" clip-rule="nonzero" fill="#000000" fill-rule="evenodd" stroke-width="1px" stroke-linecap="round" stroke-linejoin="round" stroke-miterlimit="4" stroke-dashoffset="0" d="m2.37919,2.11667a0.1323,0.1323 0 0 0 -0.13023,0.13436l0,0.26095a0.1323,0.1323 0 1 0 0.26458,0l0,-0.26095a0.1323,0.1323 0 0 0 -0.13435,-0.13436z"/>
   <path id="svg_5" clip-rule="nonzero" fill="#000000" fill-rule="evenodd" stroke-width="1px" stroke-linecap="round" stroke-linejoin="round" stroke-miterlimit="4" stroke-dashoffset="0" d="m2.37919,2.91042a0.1323,0.1323 0 0 0 -0.13023,0.13436l0,0.26095a0.1323,0.1323 0 1 0 0.26458,0l0,-0.26095a0.1323,0.1323 0 0 0 -0.13435,-0.13436z"/>
   <path id="svg_6" clip-rule="nonzero" fill="#000000" fill-rule="evenodd" stroke-width="1px" stroke-linecap="round" stroke-linejoin="round" stroke-miterlimit="4" stroke-dashoffset="0" d="m2.37919,3.70417a0.1323,0.1323 0 0 0 -0.13023,0.13436l0,0.26095a0.1323,0.1323 0 1 0 0.26458,0l0,-0.26095a0.1323,0.1323 0 0 0 -0.13435,-0.13436z"/>
   <path id="svg_7" clip-rule="nonzero" fill="#000000" fill-rule="evenodd" stroke-width="1px" stroke-linecap="round" stroke-linejoin="round" stroke-miterlimit="4" stroke-dashoffset="0" d="m2.37919,4.49792a0.1323,0.1323 0 0 0 -0.13023,0.13436l0,0.26095a0.1323,0.1323 0 1 0 0.26458,0l0,-0.26095a0.1323,0.1323 0 0 0 -0.13435,-0.13436z"/>
   <path id="svg_8" clip-rule="nonzero" fill="#000000" fill-rule="evenodd" stroke-width="1px" stroke-linecap="round" stroke-linejoin="round" stroke-miterlimit="4" stroke-dashoffset="0" d="m2.37919,5.29167a0.1323,0.1323 0 0 0 -0.13023,0.13436l0,0.26096a0.1323,0.1323 0 1 0 0.26458,0l0,-0.26096a0.1323,0.1323 0 0 0 -0.13435,-0.13436z"/>
   <path id="svg_9" clip-rule="nonzero" fill="#000000" fill-rule="evenodd" stroke-width="1px" stroke-linecap="round" stroke-linejoin="round" stroke-miterlimit="4" stroke-dashoffset="0" d="m2.37919,6.08542a0.1323,0.1323 0 0 0 -0.13023,0.13436l0,0.26096a0.1323,0.1323 0 1 0 0.26458,0l0,-0.26096a0.1323,0.1323 0 0 0 -0.13435,-0.13436z"/>
   <path id="svg_10" clip-rule="nonzero" fill="#000000" fill-rule="evenodd" stroke-width="1px" stroke-linecap="round" stroke-linejoin="round" stroke-miterlimit="4" stroke-dashoffset="0" d="m2.37919,6.87917a0.1323,0.1323 0 0 0 -0.13023,0.13436l0,0.26096a0.1323,0.1323 0 1 0 0.26458,0l0,-0.26096a0.1323,0.1323 0 0 0 -0.13435,-0.13436z"/>
   <path id="svg_11" clip-rule="nonzero" fill="#000000" fill-rule="evenodd" stroke-width="1px" stroke-linecap="round" stroke-linejoin="round" stroke-miterlimit="4" stroke-dashoffset="0" d="m0.6594,0.52761a0.1323,0.1323 0 0 0 -0.13023,0.13385l0,0.26096a0.1323,0.1323 0 1 0 0.26458,0l0,-0.26096a0.1323,0.1323 0 0 0 -0.13435,-0.13385z"/>
   <path id="svg_12" clip-rule="nonzero" fill="#000000" fill-rule="evenodd" stroke-width="1px" stroke-linecap="round" stroke-linejoin="round" stroke-miterlimit="4" stroke-dashoffset="0" d="m0.6594,1.32136a0.1323,0.1323 0 0 0 -0.13023,0.13385l0,0.26096a0.1323,0.1323 0 1 0 0.26458,0l0,-0.26096a0.1323,0.1323 0 0 0 -0.13435,-0.13385z"/>
   <path id="svg_13" clip-rule="nonzero" fill="#000000" fill-rule="evenodd" stroke-width="1px" stroke-linecap="round" stroke-linejoin="round" stroke-miterlimit="4" stroke-dashoffset="0" d="m0.6594,2.11511a0.1323,0.1323 0 0 0 -0.13023,0.13385l0,0.26096a0.1323,0.1323 0 1 0 0.26458,0l0,-0.26096a0.1323,0.1323 0 0 0 -0.13435,-0.13385z"/>
   <path id="svg_14" clip-rule="nonzero" fill="#000000" fill-rule="evenodd" stroke-width="1px" stroke-linecap="round" stroke-linejoin="round" stroke-miterlimit="4" stroke-dashoffset="0" d="m0.6594,2.90886a0.1323,0.1323 0 0 0 -0.13023,0.13385l0,0.26096a0.1323,0.1323 0 1 0 0.26458,0l0,-0.26096a0.1323,0.1323 0 0 0 -0.13435,-0.13385z"/>
   <path id="svg_15" clip-rule="nonzero" fill="#000000" fill-rule="evenodd" stroke-width="1px" stroke-linecap="round" stroke-linejoin="round" stroke-miterlimit="4" stroke-dashoffset="0" d="m0.6594,3.70261a0.1323,0.1323 0 0 0 -0.13023,0.13385l0,0.26096a0.1323,0.1323 0 1 0 0.26458,0l0,-0.26096a0.1323,0.1323 0 0 0 -0.13435,-0.13385z"/>
   <path id="svg_16" clip-rule="nonzero" fill="#000000" fill-rule="evenodd" stroke-width="1px" stroke-linecap="round" stroke-linejoin="round" stroke-miterlimit="4" stroke-dashoffset="0" d="m0.6594,4.49636a0.1323,0.1323 0 0 0 -0.13023,0.13385l0,0.26096a0.1323,0.1323 0 1 0 0.26458,0l0,-0.26096a0.1323,0.1323 0 0 0 -0.13435,-0.13385z"/>
   <path id="svg_17" clip-rule="nonzero" fill="#000000" fill-rule="evenodd" stroke-width="1px" stroke-linecap="round" stroke-linejoin="round" stroke-miterlimit="4" stroke-dashoffset="0" d="m0.6594,5.29011a0.1323,0.1323 0 0 0 -0.13023,0.13385l0,0.26096a0.1323,0.1323 0 1 0 0.26458,0l0,-0.26096a0.1323,0.1323 0 0 0 -0.13435,-0.13385z"/>
   <path id="svg_18" clip-rule="nonzero" fill="#000000" fill-rule="evenodd" stroke-width="1px" stroke-linecap="round" stroke-linejoin="round" stroke-miterlimit="4" stroke-dashoffset="0" d="m0.6594,6.08386a0.1323,0.1323 0 0 0 -0.13023,0.13385l0,0.26096a0.1323,0.1323 0 1 0 0.26458,0l0,-0.26096a0.1323,0.1323 0 0 0 -0.13435,-0.13385z"/>
   <path id="svg_19" clip-rule="nonzero" fill="#000000" fill-rule="evenodd" stroke-width="1px" stroke-linecap="round" stroke-linejoin="round" stroke-miterlimit="4" stroke-dashoffset="0" d="m0.6594,6.87761a0.1323,0.1323 0 0 0 -0.13023,0.13385l0,0.26096a0.1323,0.1323 0 1 0 0.26458,0l0,-0.26096a0.1323,0.1323 0 0 0 -0.13435,-0.13385z"/>
   <path id="svg_20" clip-rule="nonzero" fill="#000000" fill-rule="evenodd" stroke-width="1px" stroke-linecap="round" stroke-linejoin="round" stroke-miterlimit="4" stroke-dashoffset="0" d="m4.09898,0.52761a0.1323,0.1323 0 0 0 -0.13023,0.13385l0,0.26096a0.1323,0.1323 0 1 0 0.26459,0l0,-0.26096a0.1323,0.1323 0 0 0 -0.13436,-0.13385z"/>
   <path id="svg_21" clip-rule="nonzero" fill="#000000" fill-rule="evenodd" stroke-width="1px" stroke-linecap="round" stroke-linejoin="round" stroke-miterlimit="4" stroke-dashoffset="0" d="m4.09898,1.32136a0.1323,0.1323 0 0 0 -0.13023,0.13385l0,0.26096a0.1323,0.1323 0 1 0 0.26459,0l0,-0.26096a0.1323,0.1323 0 0 0 -0.13436,-0.13385z"/>
   <path id="svg_22" clip-rule="nonzero" fill="#000000" fill-rule="evenodd" stroke-width="1px" stroke-linecap="round" stroke-linejoin="round" stroke-miterlimit="4" stroke-dashoffset="0" d="m4.09898,2.11511a0.1323,0.1323 0 0 0 -0.13023,0.13385l0,0.26096a0.1323,0.1323 0 1 0 0.26459,0l0,-0.26096a0.1323,0.1323 0 0 0 -0.13436,-0.13385z"/>
   <path id="svg_23" clip-rule="nonzero" fill="#000000" fill-rule="evenodd" stroke-width="1px" stroke-linecap="round" stroke-linejoin="round" stroke-miterlimit="4" stroke-dashoffset="0" d="m4.09898,2.90886a0.1323,0.1323 0 0 0 -0.13023,0.13385l0,0.26096a0.1323,0.1323 0 1 0 0.26459,0l0,-0.26096a0.1323,0.1323 0 0 0 -0.13436,-0.13385z"/>
   <path id="svg_24" clip-rule="nonzero" fill="#000000" fill-rule="evenodd" stroke-width="1px" stroke-linecap="round" stroke-linejoin="round" stroke-miterlimit="4" stroke-dashoffset="0" d="m4.09898,3.70261a0.1323,0.1323 0 0 0 -0.13023,0.13385l0,0.26096a0.1323,0.1323 0 1 0 0.26459,0l0,-0.26096a0.1323,0.1323 0 0 0 -0.13436,-0.13385z"/>
   <path id="svg_25" clip-rule="nonzero" fill="#000000" fill-rule="evenodd" stroke-width="1px" stroke-linecap="round" stroke-linejoin="round" stroke-miterlimit="4" stroke-dashoffset="0" d="m4.09898,4.49636a0.1323,0.1323 0 0 0 -0.13023,0.13385l0,0.26096a0.1323,0.1323 0 1 0 0.26459,0l0,-0.26096a0.1323,0.1323 0 0 0 -0.13436,-0.13385z"/>
   <path id="svg_26" clip-rule="nonzero" fill="#000000" fill-rule="evenodd" stroke-width="1px" stroke-linecap="round" stroke-linejoin="round" stroke-miterlimit="4" stroke-dashoffset="0" d="m4.09898,5.29011a0.1323,0.1323 0 0 0 -0.13023,0.13385l0,0.26096a0.1323,0.1323 0 1 0 0.26459,0l0,-0.26096a0.1323,0.1323 0 0 0 -0.13436,-0.13385z"/>
   <path id="svg_27" clip-rule="nonzero" fill="#000000" fill-rule="evenodd" stroke-width="1px" stroke-linecap="round" stroke-linejoin="round" stroke-miterlimit="4" stroke-dashoffset="0" d="m4.09898,6.08386a0.1323,0.1323 0 0 0 -0.13023,0.13385l0,0.26096a0.1323,0.1323 0 1 0 0.26459,0l0,-0.26096a0.1323,0.1323 0 0 0 -0.13436,-0.13385z"/>
   <path id="svg_28" clip-rule="nonzero" fill="#000000" fill-rule="evenodd" stroke-width="1px" stroke-linecap="round" stroke-linejoin="round" stroke-miterlimit="4" stroke-dashoffset="0" d="m4.09898,6.87761a0.1323,0.1323 0 0 0 -0.13023,0.13385l0,0.26096a0.1323,0.1323 0 1 0 0.26459,0l0,-0.26096a0.1323,0.1323 0 0 0 -0.13436,-0.13385z"/>
   <path id="svg_29" clip-rule="nonzero" fill="#000000" fill-rule="nonzero" stroke-width="1" stroke-linecap="round" stroke-linejoin="round" stroke-miterlimit="4" stroke-dashoffset="0" d="m0.79375,0c-0.43741,0 -0.79375,0.35629 -0.79375,0.79375l0,6.35c0,0.43741 0.35632,0.79375 0.79375,0.79375l3.175,0c0.43744,0 0.79375,-0.35634 0.79375,-0.79375l0,-6.35c0,-0.43746 -0.35631,-0.79375 -0.79375,-0.79375l-3.175,0zm0,0.26459l3.175,0c0.29544,0 0.52917,0.2337 0.52917,0.52916l0,6.35c0,0.29541 -0.23376,0.52917 -0.52917,0.52917l-3.175,0c-0.2954,0 -0.52916,-0.23376 -0.52916,-0.52917l0,-6.35c0,-0.29546 0.23376,-0.52916 0.52916,-0.52916z"/>
   <path id="svg_30" clip-rule="nonzero" fill="#000000" fill-rule="evenodd" stroke-width="1px" stroke-miterlimit="4" stroke-dashoffset="0" d="m1.05834,0.1323l0,7.67291l0.26458,0l0,-7.67291l-0.26458,0z"/>
   <path id="svg_31" clip-rule="nonzero" fill="#000000" fill-rule="evenodd" stroke-width="1px" stroke-miterlimit="4" stroke-dashoffset="0" d="m1.71979,0.1323l0,7.67291l0.26459,0l0,-7.67291l-0.26459,0z"/>
   <path id="svg_32" clip-rule="nonzero" fill="#000000" fill-rule="evenodd" stroke-width="1px" stroke-miterlimit="4" stroke-dashoffset="0" d="m1.25884,0.41598l-0.13642,0.22686l0.66146,0.39687l0.13642,-0.22685l-0.66146,-0.39688z"/>
   <path id="svg_33" clip-rule="nonzero" fill="#000000" fill-rule="evenodd" stroke-width="1px" stroke-miterlimit="4" stroke-dashoffset="0" d="m1.25884,1.07744l-0.13642,0.22685l0.66146,0.39688l0.13642,-0.22685l-0.66146,-0.39688z"/>
   <path id="svg_34" clip-rule="nonzero" fill="#000000" fill-rule="evenodd" stroke-width="1px" stroke-miterlimit="4" stroke-dashoffset="0" d="m1.25884,1.7389l-0.13642,0.22685l0.66146,0.39688l0.13642,-0.22686l-0.66146,-0.39687z"/>
   <path id="svg_35" clip-rule="nonzero" fill="#000000" fill-rule="evenodd" stroke-width="1px" stroke-miterlimit="4" stroke-dashoffset="0" d="m1.25884,2.40036l-0.13642,0.22685l0.66146,0.39688l0.13642,-0.22686l-0.66146,-0.39687z"/>
   <path id="svg_36" clip-rule="nonzero" fill="#000000" fill-rule="evenodd" stroke-width="1px" stroke-miterlimit="4" stroke-dashoffset="0" d="m1.25884,3.06182l-0.13642,0.22685l0.66146,0.39687l0.13642,-0.22685l-0.66146,-0.39687z"/>
   <path id="svg_37" clip-rule="nonzero" fill="#000000" fill-rule="evenodd" stroke-width="1px" stroke-miterlimit="4" stroke-dashoffset="0" d="m1.25884,3.72327l-0.13642,0.22686l0.66146,0.39687l0.13642,-0.22685l-0.66146,-0.39688z"/>
   <path id="svg_38" clip-rule="nonzero" fill="#000000" fill-rule="evenodd" stroke-width="1px" stroke-miterlimit="4" stroke-dashoffset="0" d="m1.25884,4.38473l-0.13642,0.22686l0.66146,0.39687l0.13642,-0.22685l-0.66146,-0.39688z"/>
   <path id="svg_39" clip-rule="nonzero" fill="#000000" fill-rule="evenodd" stroke-width="1px" stroke-miterlimit="4" stroke-dashoffset="0" d="m1.25884,5.04619l-0.13642,0.22685l0.66146,0.39688l0.13642,-0.22685l-0.66146,-0.39688z"/>
   <path id="svg_40" clip-rule="nonzero" fill="#000000" fill-rule="evenodd" stroke-width="1px" stroke-miterlimit="4" stroke-dashoffset="0" d="m1.25884,5.70765l-0.13642,0.22685l0.66146,0.39688l0.13642,-0.22686l-0.66146,-0.39687z"/>
   <path id="svg_41" clip-rule="nonzero" fill="#000000" fill-rule="evenodd" stroke-width="1px" stroke-miterlimit="4" stroke-dashoffset="0" d="m1.25884,6.36911l-0.13642,0.22685l0.66146,0.39688l0.13642,-0.22686l-0.66146,-0.39687z"/>
   <path id="svg_42" clip-rule="nonzero" fill="#000000" fill-rule="evenodd" stroke-width="1px" stroke-miterlimit="4" stroke-dashoffset="0" d="m1.25884,7.03057l-0.13642,0.22685l0.66146,0.39687l0.13642,-0.22685l-0.66146,-0.39687z"/>
   <path id="svg_43" clip-rule="nonzero" fill="#000000" fill-rule="evenodd" stroke-width="1px" stroke-miterlimit="4" stroke-dashoffset="0" d="m3.43959,0.1323l0,7.67291l0.26458,0l0,-7.67291l-0.26458,0z"/>
   <path id="svg_44" clip-rule="nonzero" fill="#000000" fill-rule="evenodd" stroke-width="1px" stroke-miterlimit="4" stroke-dashoffset="0" d="m2.77813,0.1323l0,7.67291l0.26458,0l0,-7.67291l-0.26458,0z"/>
   <path id="svg_45" clip-rule="nonzero" fill="#000000" fill-rule="evenodd" stroke-width="1px" stroke-miterlimit="4" stroke-dashoffset="0" d="m3.50367,0.41598l-0.66146,0.39688l0.13642,0.22685l0.66146,-0.39687l-0.13642,-0.22686z"/>
   <path id="svg_46" clip-rule="nonzero" fill="#000000" fill-rule="evenodd" stroke-width="1px" stroke-miterlimit="4" stroke-dashoffset="0" d="m3.50367,1.07744l-0.66146,0.39688l0.13642,0.22685l0.66146,-0.39688l-0.13642,-0.22685z"/>
   <path id="svg_47" clip-rule="nonzero" fill="#000000" fill-rule="evenodd" stroke-width="1px" stroke-miterlimit="4" stroke-dashoffset="0" d="m3.50367,1.7389l-0.66146,0.39687l0.13642,0.22686l0.66146,-0.39688l-0.13642,-0.22685z"/>
   <path id="svg_48" clip-rule="nonzero" fill="#000000" fill-rule="evenodd" stroke-width="1px" stroke-miterlimit="4" stroke-dashoffset="0" d="m3.50367,2.40036l-0.66146,0.39687l0.13642,0.22686l0.66146,-0.39688l-0.13642,-0.22685z"/>
   <path id="svg_49" clip-rule="nonzero" fill="#000000" fill-rule="evenodd" stroke-width="1px" stroke-miterlimit="4" stroke-dashoffset="0" d="m3.50367,3.06182l-0.66146,0.39687l0.13642,0.22685l0.66146,-0.39687l-0.13642,-0.22685z"/>
   <path id="svg_50" clip-rule="nonzero" fill="#000000" fill-rule="evenodd" stroke-width="1px" stroke-miterlimit="4" stroke-dashoffset="0" d="m3.50367,3.72327l-0.66146,0.39688l0.13642,0.22685l0.66146,-0.39687l-0.13642,-0.22686z"/>
   <path id="svg_51" clip-rule="nonzero" fill="#000000" fill-rule="evenodd" stroke-width="1px" stroke-miterlimit="4" stroke-dashoffset="0" d="m3.50367,4.38473l-0.66146,0.39688l0.13642,0.22685l0.66146,-0.39687l-0.13642,-0.22686z"/>
   <path id="svg_52" clip-rule="nonzero" fill="#000000" fill-rule="evenodd" stroke-width="1px" stroke-miterlimit="4" stroke-dashoffset="0" d="m3.50367,5.04619l-0.66146,0.39688l0.13642,0.22685l0.66146,-0.39688l-0.13642,-0.22685z"/>
   <path id="svg_53" clip-rule="nonzero" fill="#000000" fill-rule="evenodd" stroke-width="1px" stroke-miterlimit="4" stroke-dashoffset="0" d="m3.50367,5.70765l-0.66146,0.39687l0.13642,0.22686l0.66146,-0.39688l-0.13642,-0.22685z"/>
   <path id="svg_54" clip-rule="nonzero" fill="#000000" fill-rule="evenodd" stroke-width="1px" stroke-miterlimit="4" stroke-dashoffset="0" d="m3.50367,6.36911l-0.66146,0.39687l0.13642,0.22686l0.66146,-0.39688l-0.13642,-0.22685z"/>
   <path id="svg_55" clip-rule="nonzero" fill="#000000" fill-rule="evenodd" stroke-width="1px" stroke-miterlimit="4" stroke-dashoffset="0" d="m3.50367,7.03057l-0.66146,0.39687l0.13642,0.22685l0.66146,-0.39687l-0.13642,-0.22685z"/>
  </g>
 </g>
</svg>