<svg width="8" height="7" xmlns="http://www.w3.org/2000/svg" version="1.1">

 <g>
  <title>Layer 1</title>
  <g id="svg_1">
   <path id="svg_2" clip-rule="nonzero" fill="#000000" fill-rule="evenodd" stroke-width="1px" stroke-miterlimit="4" stroke-dashoffset="0" d="m1.89084,0l-1.89084,1.89138l1.79627,1.79625l0.09353,-0.0935l0.28629,-0.28628c0.15388,-0.15388 0.15388,-0.40732 0,-0.5612l-0.00259,-0.003l-0.00053,0l0.56999,-0.56999l0.00259,0.003l0.00103,0c0.15389,0.15389 0.40732,0.15389 0.56121,0l0.37982,-0.37983l-1.79677,-1.79683zm0,0.37465l1.42265,1.42214l-0.19275,0.19277c-0.05278,0.0528 -0.1343,0.0528 -0.18707,0l-0.0031,-0.003l-0.00053,0c-0.10224,-0.10221 -0.27193,-0.10224 -0.37414,0l-0.56999,0.56999c-0.10222,0.10221 -0.10222,0.27191 0,0.37412l0.00258,0.003l0.00052,0c0.05277,0.0528 0.05277,0.1343 0,0.18706l-0.19276,0.19277l-1.42213,-1.42213l1.51672,-1.51672z"/>
   <path id="svg_3" clip-rule="nonzero" fill="#000000" fill-rule="evenodd" stroke-width="1px" stroke-miterlimit="4" stroke-dashoffset="0" d="m2.17609,0.47234l-1.70377,1.70428l0.18707,0.18706l1.70377,-1.70428l-0.18707,-0.18706z"/>
   <path id="svg_4" clip-rule="nonzero" fill="#000000" fill-rule="evenodd" stroke-width="1px" stroke-miterlimit="4" stroke-dashoffset="0" d="m5.10201,4.36253l-0.74001,0.74001l0,0.77206l0.03876,0.0387l0.70125,0.70126l0.77256,0l0.74001,-0.73999l0,-0.77206l-0.74001,-0.74001l-0.77256,0.00003zm0.10955,0.26459l0.55346,0l0.58498,0.58496l0,0.55296l-0.58498,0.58496l-0.55346,0l-0.58497,-0.58496l0,-0.55296l0.58497,-0.58496z"/>
   <path id="svg_5" clip-rule="nonzero" fill="#000000" fill-rule="nonzero" stroke-width="1" stroke-linecap="round" stroke-linejoin="round" stroke-miterlimit="4" stroke-dashoffset="0" d="m5.06339,5.06386c-0.23354,0.23355 -0.23317,0.61603 0.00037,0.84958c0.23354,0.23355 0.61567,0.23355 0.84921,0c0.23354,-0.23355 0.23391,-0.61603 0.00037,-0.84958c-0.23354,-0.23354 -0.6164,-0.23354 -0.84994,0l-0.00001,0zm0.18709,0.18709c0.13243,-0.13242 0.34333,-0.13242 0.47576,0c0.13243,0.13242 0.13207,0.34295 -0.00037,0.4754c-0.13243,0.13243 -0.3426,0.13243 -0.47503,0c-0.13243,-0.13245 -0.1328,-0.34298 -0.00037,-0.4754l0.00001,0z"/>
   <path id="svg_6" clip-rule="nonzero" fill="#000000" fill-rule="evenodd" stroke-width="1px" stroke-miterlimit="4" stroke-dashoffset="0" d="m5.78207,0l-1.79679,1.79679l0.37982,0.37983c0.15389,0.15389 0.40733,0.15389 0.56121,0l0.00103,0l0.00259,-0.003l0.56999,0.56999l-0.00053,0l-0.00259,0.003c-0.15388,0.15388 -0.15388,0.40732 0,0.5612l0.37982,0.37981l0.09354,-0.0935l1.70275,-1.70272l-1.89084,-1.8914zm0,0.37465l1.51671,1.51673l-1.42214,1.42213l-0.19275,-0.19277c-0.05277,-0.0528 -0.05277,-0.13428 0,-0.18706l0.00053,0l0.00259,-0.003c0.10222,-0.10221 0.10222,-0.27191 0,-0.37412l-0.57,-0.56999c-0.1022,-0.10224 -0.2719,-0.10221 -0.37414,0l-0.00052,0l-0.0031,0.003c-0.05278,0.0528 -0.1343,0.0528 -0.18707,0l-0.19276,-0.19277l1.42265,-1.42215z"/>
   <path id="svg_7" clip-rule="nonzero" fill="#000000" fill-rule="evenodd" stroke-width="1px" stroke-miterlimit="4" stroke-dashoffset="0" d="m5.40432,2.46034l-2.46135,2.46134l0.18707,0.18706l2.46135,-2.46134l-0.18707,-0.18706z"/>
   <path id="svg_8" clip-rule="nonzero" fill="#000000" fill-rule="evenodd" stroke-width="1px" stroke-miterlimit="4" stroke-dashoffset="0" d="m5.02553,2.08153l-2.46135,2.46134l0.18707,0.18709l2.46135,-2.46137l-0.18707,-0.18706z"/>
   <path id="svg_9" clip-rule="nonzero" fill="#000000" fill-rule="evenodd" stroke-width="1px" stroke-miterlimit="4" stroke-dashoffset="0" d="m5.49682,0.47234l-0.18707,0.18706l1.70377,1.70428l0.18707,-0.18706l-1.70377,-1.70428z"/>
   <path id="svg_10" clip-rule="nonzero" fill="#000000" fill-rule="evenodd" stroke-width="1px" stroke-miterlimit="4" stroke-dashoffset="0" d="m1.79834,4.36253l-0.74001,0.74001l0,0.77206l0.74001,0.73999l0.77256,0l0.74,-0.73999l0,-0.0548l0,-0.71726l-0.74,-0.74001l-0.77256,0zm0.10955,0.26459l0.55345,0l0.58498,0.58496l0,0.55296l-0.58498,0.58496l-0.55345,0l-0.58498,-0.58496l0,-0.55296l0.58498,-0.58496z"/>
   <path id="svg_11" clip-rule="nonzero" fill="#000000" fill-rule="nonzero" stroke-width="1" stroke-linecap="round" stroke-linejoin="round" stroke-miterlimit="4" stroke-dashoffset="0" d="m2.60931,5.06386c0.23355,0.23355 0.23391,0.61603 0.00037,0.84958c-0.23354,0.23355 -0.61639,0.23355 -0.84993,0c-0.23354,-0.23355 -0.23354,-0.6164 0,-0.84995c0.23354,-0.23355 0.61603,-0.23317 0.84957,0l-0.00001,0.00037zm-0.18708,0.18709c-0.13244,-0.13242 -0.34297,-0.13279 -0.4754,0c-0.13243,0.13242 -0.13243,0.34332 0,0.47577c0.13243,0.13243 0.34333,0.13243 0.47576,0c0.13243,-0.13245 0.13207,-0.34298 -0.00037,-0.4754l0.00001,-0.00037z"/>
   <path id="svg_12" clip-rule="nonzero" fill="#000000" fill-rule="evenodd" stroke-width="1px" stroke-miterlimit="4" stroke-dashoffset="0" d="m2.64738,2.08153l-0.18707,0.18706l1.28261,1.28262l0.18707,-0.18706l-1.28261,-1.28262z"/>
   <path id="svg_13" clip-rule="nonzero" fill="#000000" fill-rule="evenodd" stroke-width="1px" stroke-miterlimit="4" stroke-dashoffset="0" d="m2.26859,2.46034l-0.18707,0.18706l1.28261,1.28259l0.18707,-0.18706l-1.28261,-1.28259z"/>
   <path id="svg_14" clip-rule="nonzero" fill="#000000" fill-rule="evenodd" stroke-width="1px" stroke-miterlimit="4" stroke-dashoffset="0" d="m3.92999,4.12173l-0.18707,0.18706l0.79995,0.79995l0.18707,-0.18706l-0.79995,-0.79995z"/>
   <path id="svg_15" clip-rule="nonzero" fill="#000000" fill-rule="evenodd" stroke-width="1px" stroke-miterlimit="4" stroke-dashoffset="0" d="m4.30878,3.74293l-0.18707,0.18706l0.79995,0.79997l0.18707,-0.18709l-0.79995,-0.79994z"/>
  </g>
 </g>
</svg>