<svg width="8" height="4.999999999999999" xmlns="http://www.w3.org/2000/svg" version="1.1">

 <g>
  <title>Layer 1</title>
  <g id="svg_1">
   <path id="svg_2" clip-rule="nonzero" fill="#000000" fill-rule="evenodd" stroke-width="1px" stroke-miterlimit="4" stroke-dashoffset="0" d="m3.96875,3.91395c-0.12613,0 -0.25242,0.0302 -0.36071,0.091l-0.40722,0.22841c-0.18484,0.10369 -0.396,0.10369 -0.58084,0c-0.1161,-0.0651 -0.23215,-0.1302 -0.3483,-0.19534c-0.26209,-0.14706 -0.57713,-0.14706 -0.83923,0c-0.23328,0.11861 -0.43532,0.27744 -0.63561,0.27284l-0.00265,0l-0.00265,0c-0.04969,0 -0.09914,-0.006 -0.14729,-0.019l-0.06821,0.2558c0.07027,0.0188 0.14219,0.0272 0.21341,0.0274c0.3292,0.007 0.57327,-0.20674 0.76483,-0.30334l0.00265,0l0.00265,-0.003c0.18484,-0.10372 0.396,-0.10372 0.58084,0c0.1161,0.0651 0.23215,0.1302 0.3483,0.19534c0.2621,0.14703 0.57714,0.14703 0.83923,0l0.40772,-0.22841c0.11018,-0.0618 0.35187,-0.0618 0.46199,0c0.13584,0.0762 0.27186,0.15221 0.40773,0.22841c0.26207,0.14703 0.57713,0.14703 0.83923,0c0.11615,-0.0651 0.2322,-0.1302 0.3483,-0.19534c0.18481,-0.10369 0.396,-0.10369 0.58084,0c0.11609,0.0651 0.23214,0.1302 0.34829,0.19534c0.13105,0.0735 0.27525,0.1111 0.41963,0.1111c0.07192,0 0.14452,-0.009 0.21548,-0.0279l-0.06821,-0.25579c-0.04815,0.0127 -0.09761,0.019 -0.14727,0.019c-0.0989,0 -0.19801,-0.0257 -0.29043,-0.0775c-0.1161,-0.0651 -0.23215,-0.1302 -0.3483,-0.19534c-0.26209,-0.14706 -0.57713,-0.14709 -0.83923,0c-0.11615,0.0651 -0.2322,0.13022 -0.3483,0.19534c-0.18484,0.10369 -0.39603,0.10366 -0.58084,0c-0.13583,-0.0762 -0.27133,-0.15222 -0.40722,-0.22842c-0.10827,-0.0607 -0.23458,-0.091 -0.36068,-0.091l0.00207,0.0004z"/>
   <path id="svg_3" clip-rule="nonzero" fill="#000000" fill-rule="evenodd" stroke-width="1px" stroke-miterlimit="4" stroke-dashoffset="0" d="m2.38125,0.13229l0,0.79375l-1.85209,0l0,0.92604l-0.52916,0l0,0.26458l0.79375,0l0,-0.92604l1.85208,0l0,-1.05833l-0.26458,0z"/>
   <path id="svg_4" clip-rule="nonzero" fill="#000000" fill-rule="evenodd" stroke-width="1px" stroke-miterlimit="4" stroke-dashoffset="0" d="m3.175,0.13229l0,1.05833l4.10104,0l0,3.83646l-6.48229,0l0,-2.38125l-0.79375,0l0,0.26458l0.52916,0l0,2.38125l7.01146,0l0,-4.36562l-4.10104,0l0,-0.79375l-0.26458,0z"/>
   <path id="svg_5" clip-rule="nonzero" fill="#000000" fill-rule="evenodd" stroke-width="1px" stroke-miterlimit="4" stroke-dashoffset="0" d="m2.24895,0l0,0.26458l1.32292,0l0,-0.26458l-1.32292,0z"/>
   <path id="svg_6" clip-rule="nonzero" fill="#000000" fill-rule="evenodd" stroke-width="1px" stroke-linecap="round" stroke-linejoin="round" stroke-miterlimit="4" stroke-dashoffset="0" d="m6.21561,1.45521a0.1323,0.1323 0 0 0 -0.09146,0.0387l-0.39688,0.39691a0.1323,0.1323 0 1 0 0.18709,0.18708l0.30334,-0.30334l0.30332,0.30334a0.1323,0.1323 0 1 0 0.18709,-0.18708l-0.39687,-0.39688a0.1323,0.1323 0 0 0 -0.09562,-0.0387l-0.00001,-0.00003z"/>
   <path id="svg_7" clip-rule="nonzero" fill="#000000" fill-rule="evenodd" stroke-width="1px" stroke-linecap="round" stroke-linejoin="round" stroke-miterlimit="4" stroke-dashoffset="0" d="m5.81927,3.04167a0.1323,0.1323 0 0 0 -0.092,0.22686l0.39688,0.39687a0.1323,0.1323 0 0 0 0.18708,0l0.39688,-0.39687a0.1323,0.1323 0 1 0 -0.18709,-0.18709l-0.30332,0.30335l-0.30334,-0.30335a0.1323,0.1323 0 0 0 -0.09509,-0.0398l0,0.00003z"/>
   <path id="svg_8" clip-rule="nonzero" fill="#000000" fill-rule="evenodd" stroke-width="1px" stroke-miterlimit="4" stroke-dashoffset="0" d="m6.08541,1.5875l0,1.85208l0.26459,0l0,-1.85208l-0.26459,0z"/>
  </g>
 </g>
</svg>