<svg width="8" height="8" xmlns="http://www.w3.org/2000/svg" version="1.1">

 <g>
  <title>Layer 1</title>
  <g id="svg_1">
   <path id="svg_2" clip-rule="nonzero" fill="#000000" fill-rule="nonzero" stroke-linecap="round" stroke-linejoin="round" stroke-miterlimit="4" stroke-dashoffset="0" d="m3.8375,4.56406c-0.76449,0.00005 -1.42891,0.5787 -1.65003,1.40407a0.1323,0.1323 0 1 0 0.25527,0.0682c0.19508,-0.72816 0.76399,-1.20763 1.39476,-1.20769c0.62986,0 1.19753,0.47969 1.39268,1.20666a0.1323,0.1323 0 1 0 0.25527,-0.0682c-0.22119,-0.82404 -0.88455,-1.40197 -1.64795,-1.40303l0,-0.00001z"/>
   <path id="svg_3" clip-rule="nonzero" fill="#000000" fill-rule="nonzero" stroke-width="1" stroke-linecap="round" stroke-linejoin="round" stroke-miterlimit="4" stroke-dashoffset="0" d="m1.21648,3.30909a0.1323,0.1323 0 0 0 0,0.26458c0.34965,0.0159 0.63423,0.32954 0.63458,0.72605c0,0.29366 -0.16145,0.55469 -0.40101,0.66764a0.13247,0.13247 0 1 0 0.11266,0.2398c0.3392,-0.15994 0.55256,-0.51732 0.55293,-0.90744c0,-0.52483 -0.38672,-0.96806 -0.88678,-0.99063a0.1323,0.1323 0 0 0 -0.01349,0l0.00111,0z"/>
   <path id="svg_4" clip-rule="nonzero" fill="#000000" fill-rule="nonzero" stroke-width="1" stroke-linecap="round" stroke-linejoin="round" stroke-miterlimit="4" stroke-dashoffset="0" d="m6.4451,3.30856c-0.50099,0.0217 -0.88863,0.4654 -0.88884,0.99116c0.00015,0.39086 0.21391,0.74874 0.55395,0.90847a0.13247,0.13247 0 0 0 0.11266,-0.23979c-0.24013,-0.1128 -0.40193,-0.37447 -0.40203,-0.66868c0.00016,-0.39722 0.2853,-0.7115 0.63561,-0.72658a0.13241,0.13241 0 1 0 -0.01138,-0.26458l0.00003,0z"/>
   <path id="svg_5" clip-rule="nonzero" fill="#000000" fill-rule="evenodd" stroke-width="1px" stroke-miterlimit="4" stroke-dashoffset="0" d="m3.83593,2.12029c-0.57658,0 -1.15324,0.0471 -1.72392,0.1478l-0.54723,0.0966l0.04545,0.26046l0.54777,-0.0966c1.10966,-0.19584 2.2448,-0.18746 3.35796,0c0.16793,0.0283 0.40418,0.0768 0.53432,0.11266l0.07028,-0.25477c-0.14902,-0.041 -0.38436,-0.0892 -0.56068,-0.11887c-0.57044,-0.096 -1.14734,-0.14616 -1.72395,-0.14727l0,-0.00001z"/>
   <path id="svg_6" clip-rule="nonzero" fill="#000000" fill-rule="nonzero" stroke-linecap="round" stroke-linejoin="round" stroke-miterlimit="4" stroke-dashoffset="0" d="m3.83646,2.77812c-0.4368,0 -0.79375,0.35695 -0.79375,0.79375c0,0.43683 0.35695,0.79375 0.79375,0.79375c0.4368,0 0.79375,-0.35692 0.79375,-0.79375c0,-0.4368 -0.35695,-0.79375 -0.79375,-0.79375zm0,0.26459c0.29382,0 0.52917,0.23534 0.52917,0.52916c0,0.29382 -0.23535,0.52917 -0.52917,0.52917c-0.29382,0 -0.52916,-0.23535 -0.52916,-0.52917c0,-0.29382 0.23534,-0.52916 0.52916,-0.52916z"/>
   <path id="svg_7" clip-rule="nonzero" fill="#000000" fill-rule="evenodd" stroke-width="1px" stroke-miterlimit="4" stroke-dashoffset="0" d="m2.51355,3.43958l0,0.26458l0.26458,0l0,-0.26458l-0.26458,0z"/>
   <path id="svg_8" clip-rule="nonzero" fill="#000000" fill-rule="evenodd" stroke-width="1px" stroke-miterlimit="4" stroke-dashoffset="0" d="m4.8948,3.43958l0,0.26458l0.26458,0l0,-0.26458l-0.26458,0z"/>
   <path id="svg_9" clip-rule="nonzero" fill="#000000" fill-rule="nonzero" stroke-width="1" stroke-linecap="round" stroke-linejoin="round" stroke-miterlimit="4" stroke-dashoffset="0" d="m3.83646,1.05833c-1.53275,0 -2.77812,1.24539 -2.77812,2.77813c0,1.53275 1.24537,2.77812 2.77812,2.77812c1.53276,0 2.77813,-1.24537 2.77813,-2.77812c0,-1.53274 -1.24537,-2.77813 -2.77813,-2.77813zm0,0.26458c1.38975,0 2.51355,1.1238 2.51355,2.51355c0,1.38977 -1.1238,2.51354 -2.51355,2.51354c-1.38975,0 -2.51354,-1.12377 -2.51354,-2.51354c0,-1.38975 1.12379,-2.51355 2.51354,-2.51355z"/>
   <path id="svg_10" clip-rule="nonzero" fill="#000000" fill-rule="nonzero" stroke-linecap="round" stroke-linejoin="round" stroke-miterlimit="4" stroke-dashoffset="0" d="m3.83646,0c-2.11725,0 -3.83646,1.71921 -3.83646,3.83646c0,2.11725 1.71921,3.83645 3.83646,3.83645c2.11725,0 3.83646,-1.7192 3.83646,-3.83645c0,-2.11725 -1.71921,-3.83646 -3.83646,-3.83646zm0,0.26458c1.97427,0 3.57188,1.59763 3.57188,3.57188c0,1.97426 -1.59761,3.57187 -3.57188,3.57187c-1.97426,0 -3.57187,-1.59761 -3.57187,-3.57187c0,-1.97425 1.59761,-3.57188 3.57187,-3.57188z"/>
   <path id="svg_11" clip-rule="nonzero" fill="#000000" fill-rule="evenodd" stroke-width="1px" stroke-miterlimit="4" stroke-dashoffset="0" d="m3.70417,6.87916l0,0.26459l0.26459,0l0,-0.26459l-0.26459,0z"/>
   <path id="svg_12" clip-rule="nonzero" fill="#000000" fill-rule="evenodd" stroke-width="1px" stroke-miterlimit="4" stroke-dashoffset="0" d="m2.77813,6.74687l0,0.26459l0.26458,0l0,-0.26459l-0.26458,0z"/>
   <path id="svg_13" clip-rule="nonzero" fill="#000000" fill-rule="evenodd" stroke-width="1px" stroke-miterlimit="4" stroke-dashoffset="0" d="m4.63021,6.74687l0,0.26459l0.26459,0l0,-0.26459l-0.26459,0z"/>
   <path id="svg_14" clip-rule="nonzero" fill="#000000" fill-rule="evenodd" stroke-width="1px" stroke-miterlimit="4" stroke-dashoffset="0" d="m3.70417,0.79422l0,-0.26458l0.26459,0l0,0.26458l-0.26459,0z"/>
   <path id="svg_15" clip-rule="nonzero" fill="#000000" fill-rule="evenodd" stroke-width="1px" stroke-miterlimit="4" stroke-dashoffset="0" d="m2.77813,0.92652l0,-0.26459l0.26458,0l0,0.26459l-0.26458,0z"/>
   <path id="svg_16" clip-rule="nonzero" fill="#000000" fill-rule="evenodd" stroke-width="1px" stroke-miterlimit="4" stroke-dashoffset="0" d="m4.63021,0.92652l0,-0.26459l0.26459,0l0,0.26459l-0.26459,0z"/>
  </g>
 </g>
</svg>